<svg width="42" height="42" viewBox="0 0 42 42" fill="none" xmlns="http://www.w3.org/2000/svg">
<g filter="url(#filter0_d_23761_1755)">
<rect x="4" width="34" height="34" rx="17" fill="black"/>
<path fill-rule="evenodd" clip-rule="evenodd" d="M22.7929 18.2638C21.361 19.6957 19.0394 19.6957 17.6075 18.2638C16.1755 16.8319 16.1755 14.5103 17.6075 13.0783C19.0394 11.6464 21.361 11.6464 22.7929 13.0783C24.2248 14.5103 24.2248 16.8319 22.7929 18.2638ZM23.2333 19.6468C21.2731 21.1462 18.4575 20.9994 16.6647 19.2066C14.712 17.254 14.712 14.0882 16.6647 12.1355C18.6173 10.1829 21.7831 10.1829 23.7357 12.1355C25.5285 13.9283 25.6753 16.7437 24.1761 18.7039L27.7428 22.2706L26.8 23.2134L23.2333 19.6468Z" fill="white"/>
</g>
<defs>
<filter id="filter0_d_23761_1755" x="0" y="0" width="42" height="42" filterUnits="userSpaceOnUse" color-interpolation-filters="sRGB">
<feFlood flood-opacity="0" result="BackgroundImageFix"/>
<feColorMatrix in="SourceAlpha" type="matrix" values="0 0 0 0 0 0 0 0 0 0 0 0 0 0 0 0 0 0 127 0" result="hardAlpha"/>
<feOffset dy="4"/>
<feGaussianBlur stdDeviation="2"/>
<feComposite in2="hardAlpha" operator="out"/>
<feColorMatrix type="matrix" values="0 0 0 0 0 0 0 0 0 0 0 0 0 0 0 0 0 0 0.25 0"/>
<feBlend mode="normal" in2="BackgroundImageFix" result="effect1_dropShadow_23761_1755"/>
<feBlend mode="normal" in="SourceGraphic" in2="effect1_dropShadow_23761_1755" result="shape"/>
</filter>
</defs>
</svg>
